<?xml version="1.0" standalone="no"?>
<!DOCTYPE svg PUBLIC "-//W3C//DTD SVG 20010904//EN"
 "http://www.w3.org/TR/2001/REC-SVG-20010904/DTD/svg10.dtd">
<svg version="1.0" xmlns="http://www.w3.org/2000/svg"
 width="912.000000pt" height="1000.000000pt" viewBox="0 0 912.000000 1000.000000"
 preserveAspectRatio="xMidYMid meet">
<metadata>
Created by potrace 1.16, written by Peter Selinger 2001-2019
</metadata>
<g transform="translate(0.000000,1000.000000) scale(0.100000,-0.100000)"
fill="#000000" stroke="none">
<path d="M4337 9855 c2 -11 1 -14 -3 -7 -9 20 -33 14 -29 -7 2 -13 -8 -28 -30
-45 -19 -14 -38 -26 -43 -26 -5 0 -22 -12 -37 -26 -33 -30 -54 -36 -95 -24
-17 5 -32 5 -35 -1 -4 -5 -15 -9 -26 -9 -10 0 -19 -5 -19 -11 0 -11 -24 -39
-34 -39 -2 0 -7 12 -9 28 -4 24 -5 25 -11 7 -7 -19 -141 -105 -163 -105 -15 0
-37 -29 -73 -96 -17 -33 -46 -76 -64 -95 -17 -19 -43 -50 -56 -69 -14 -19 -33
-43 -42 -52 -10 -10 -18 -24 -18 -30 0 -9 4 -8 11 2 9 12 10 11 4 -5 -27 -83
-45 -256 -49 -475 -6 -291 -11 -388 -20 -382 -5 3 -6 -7 -1 -24 4 -16 9 -55
12 -88 4 -45 2 -57 -8 -51 -9 6 -10 3 -6 -9 4 -10 7 -34 8 -54 0 -31 2 -33 9
-17 8 16 9 13 7 -15 -1 -23 -7 -34 -15 -32 -10 2 -11 -4 -7 -19 4 -12 3 -24
-3 -28 -5 -3 2 -15 17 -26 14 -10 21 -12 14 -4 -7 9 -9 20 -3 29 7 12 10 12
16 -3 3 -9 4 -26 1 -37 -3 -11 -1 -18 3 -15 5 3 8 -8 8 -25 -1 -16 -5 -30 -10
-30 -4 0 -8 -8 -8 -17 0 -9 3 -13 6 -10 4 3 14 2 24 -3 12 -6 17 -5 17 6 0 7
-5 14 -12 14 -15 0 -14 38 2 44 12 5 19 -12 24 -54 3 -20 -11 -51 -20 -46 -4
3 -7 -11 -7 -29 0 -23 3 -30 9 -22 6 8 7 4 4 -10 -3 -13 -1 -26 4 -29 5 -3 9
-14 9 -24 0 -10 4 -21 9 -24 12 -8 2 34 -13 54 -10 13 -9 13 7 1 9 -7 17 -20
17 -27 0 -8 5 -14 10 -14 6 0 19 -9 30 -20 23 -23 60 -27 60 -5 0 8 -9 19 -20
25 -23 12 -28 32 -6 24 21 -8 -19 146 -43 166 -21 19 -41 53 -41 72 1 7 8 0
17 -17 22 -40 29 -17 12 43 -15 58 -23 552 -9 552 6 0 10 10 10 23 0 16 3 18
9 8 5 -7 14 -12 20 -10 8 3 5 11 -7 24 -21 23 -16 60 6 46 8 -5 13 -11 13 -15
-2 -16 0 -18 14 -6 8 7 13 15 11 19 -3 4 4 7 14 7 16 0 15 -3 -6 -23 -13 -12
-24 -28 -24 -35 0 -8 3 -9 11 -1 18 18 47 3 51 -27 3 -16 0 -26 -5 -23 -5 3
-6 -8 -2 -26 5 -25 1 -40 -17 -69 -36 -55 -40 -71 -17 -65 11 3 22 9 25 14 3
5 11 9 19 9 14 0 18 -57 5 -65 -4 -3 -6 -16 -4 -31 3 -35 -12 -74 -30 -74 -16
0 -26 -21 -26 -55 0 -13 -5 -27 -10 -30 -8 -5 -7 -11 1 -21 6 -8 9 -17 6 -20
-6 -6 24 -93 43 -126 6 -10 10 -28 10 -40 0 -13 7 -32 15 -42 8 -11 15 -28 15
-37 0 -10 6 -24 13 -31 24 -27 37 -57 30 -74 -4 -12 -3 -15 5 -10 7 4 12 0 13
-11 1 -10 3 -27 5 -38 1 -11 5 -33 7 -48 2 -16 8 -32 14 -35 6 -4 13 -28 17
-55 4 -26 11 -45 16 -42 4 3 11 -14 15 -37 10 -69 28 -138 36 -138 4 0 10 -13
14 -29 3 -16 14 -36 24 -45 11 -10 17 -27 15 -42 -1 -14 10 -63 26 -109 15
-46 26 -86 23 -88 -2 -3 0 -22 6 -42 9 -32 8 -36 -6 -31 -13 5 -14 4 -3 -9 7
-9 8 -15 2 -15 -6 0 -8 -10 -4 -22 5 -21 4 -22 -11 -9 -14 11 -17 11 -18 0 -1
-8 -1 -17 0 -21 0 -5 -4 -8 -10 -8 -5 0 -7 -4 -4 -10 3 -5 2 -10 -4 -10 -5 0
-11 -8 -13 -17 -2 -12 -11 -2 -26 29 -27 57 -27 65 -5 47 17 -13 17 -13 0 13
-18 29 -23 63 -7 53 5 -3 5 7 -1 25 l-11 31 -33 -46 c-59 -84 -215 -201 -399
-300 -47 -26 -86 -48 -86 -49 0 -1 8 -18 18 -37 10 -19 40 -108 67 -197 45
-148 51 -161 70 -156 11 4 22 11 23 15 2 5 10 9 18 9 8 0 14 6 14 14 0 8 4 18
10 21 6 3 7 -1 4 -10 -4 -8 0 -22 7 -31 11 -13 9 -14 -14 -9 -17 5 -27 3 -27
-4 0 -6 10 -12 23 -12 41 -2 74 -8 113 -18 22 -6 41 -10 44 -10 3 1 22 -6 42
-14 20 -8 39 -13 42 -9 3 3 6 0 6 -7 0 -9 8 -11 26 -7 14 4 31 3 37 -2 7 -5
33 -12 58 -14 34 -4 46 -2 46 8 0 8 -8 14 -18 14 -10 0 -24 6 -31 13 -11 11
-105 41 -164 52 -10 2 -21 4 -24 5 -3 1 -32 1 -65 0 -64 -2 -70 13 -7 16 20 1
45 5 54 9 9 3 26 2 37 -4 14 -8 22 -8 26 0 5 6 11 4 19 -7 12 -15 14 -14 33 9
11 15 23 24 27 22 3 -3 1 1 -4 7 -9 10 -13 10 -20 -2 -5 -8 -10 -13 -11 -10 0
3 -2 14 -4 25 -6 33 6 67 22 61 8 -3 24 5 37 19 17 18 26 21 34 13 8 -8 11 -6
10 8 0 10 1 26 3 34 2 8 -2 14 -8 13 -7 -2 -13 2 -13 8 0 5 -4 8 -9 5 -5 -4
-11 0 -14 6 -3 10 -7 10 -20 0 -9 -8 -21 -11 -27 -7 -5 3 -10 2 -10 -3 0 -5
-7 -9 -15 -9 -8 0 -12 4 -9 8 2 4 0 10 -6 14 -13 8 21 54 36 48 7 -2 15 0 18
5 3 6 19 8 35 6 22 -4 30 0 34 16 3 13 10 18 21 14 9 -3 16 -2 16 4 0 9 52 26
78 25 6 0 12 3 12 8 0 5 8 9 18 9 10 0 37 9 60 20 22 11 59 20 82 20 22 0 39
3 39 8 -3 19 2 33 10 28 5 -4 11 -2 13 4 1 5 18 11 37 13 37 3 54 23 24 29
-15 3 -14 5 5 10 15 4 22 2 22 -8 0 -10 6 -8 20 6 11 11 27 20 35 20 13 0 45
16 74 37 2 1 -2 9 -9 18 -8 10 -9 15 -1 15 16 0 46 33 62 68 7 17 17 28 21 26
4 -3 5 2 2 10 -3 9 -1 16 5 16 6 0 11 8 11 18 0 24 23 71 48 98 11 11 23 31
27 43 4 13 16 32 26 42 10 10 19 25 19 32 0 6 23 25 50 42 28 16 50 35 50 43
0 7 -5 10 -12 7 -7 -4 -2 2 12 13 14 12 27 19 29 16 2 -2 10 1 18 8 11 8 12 7
7 -6 -3 -9 -12 -16 -20 -16 -19 0 -18 -16 1 -24 20 -7 19 -21 -2 -42 -16 -16
-16 -16 6 -9 l24 7 -22 -31 c-13 -18 -28 -28 -34 -25 -9 5 -9 4 0 -6 9 -10 19
-7 47 15 33 25 36 26 38 9 0 -11 4 4 7 31 l6 50 32 -56 c39 -70 146 -162 198
-171 11 -2 42 -18 69 -35 65 -44 77 -42 24 5 -58 49 -120 127 -143 180 -10 23
-21 42 -25 42 -4 0 -7 6 -7 13 0 6 -7 39 -14 72 -17 72 -16 229 1 281 7 20 16
60 20 88 6 42 8 30 10 -69 l3 -120 9 100 c6 55 11 115 12 133 0 17 4 32 9 32
4 0 7 9 7 19 0 11 4 23 10 26 6 3 6 13 1 23 -5 9 -16 33 -25 52 -10 20 -15 26
-12 13 6 -30 -10 -38 -41 -22 -24 13 -25 17 -19 74 4 36 14 71 26 87 11 15 20
31 20 35 0 4 -7 0 -14 -9 -11 -16 -13 -10 -10 40 1 31 3 60 3 64 1 4 8 5 16 2
9 -4 15 0 15 10 0 20 29 21 36 1 4 -8 10 -12 15 -9 5 3 13 -4 17 -15 11 -31
33 -10 39 37 6 44 6 44 -49 56 -18 4 -28 2 -28 -5 0 -12 -29 -38 -42 -39 -17
0 -6 39 17 64 49 53 53 67 94 346 6 36 8 80 5 98 -5 33 -5 34 24 27 19 -4 33
-2 38 6 4 8 3 9 -4 5 -7 -4 -12 -1 -12 8 0 8 -3 21 -6 30 -4 11 -1 16 11 16
12 0 15 -6 10 -22 -6 -22 -5 -22 9 -4 19 24 12 36 -20 36 -22 0 -24 3 -18 23
3 12 3 19 -1 15 -9 -9 -34 21 -35 41 0 8 8 20 18 27 12 10 13 13 2 9 -10 -3
-22 5 -33 24 -18 30 -24 57 -7 31 8 -13 10 -12 10 3 0 9 8 17 17 17 15 0 14 2
-3 15 -17 12 -20 12 -31 -1 -17 -23 -34 -7 -31 30 2 29 5 32 28 28 23 -3 30 2
49 37 25 50 25 47 5 55 -8 3 -13 2 -11 -2 6 -9 -26 -65 -36 -63 -4 0 -13 1
-21 1 -8 0 -16 7 -19 14 -4 10 -1 13 8 10 12 -5 12 -1 2 19 -9 19 -15 23 -24
15 -7 -6 -13 -7 -14 -2 -2 26 -10 72 -16 94 -3 14 -5 32 -5 40 1 8 4 30 6 48
2 17 -1 32 -5 32 -5 0 -9 -4 -9 -10 0 -28 -30 -4 -51 39 -13 27 -26 49 -29 49
-26 -5 -78 60 -62 77 4 5 1 5 -6 1 -7 -4 -15 -1 -18 9 -6 14 -9 14 -16 3 -7
-9 -8 -7 -5 9 3 13 1 26 -4 29 -5 3 -9 0 -9 -5 0 -7 -7 -7 -20 1 -11 7 -20 18
-20 25 0 16 -12 17 -28 1 -9 -9 -12 -9 -12 1 0 14 -39 50 -56 51 -6 0 -19 10
-30 22 -10 12 -13 18 -6 14 6 -4 12 -5 12 -2 0 3 -17 13 -37 23 -21 9 -60 32
-86 50 -60 41 -111 52 -136 29 -10 -9 -21 -16 -26 -16 -5 0 -1 6 9 13 14 10
16 18 10 30 -8 14 -13 15 -36 3 -18 -9 -29 -11 -36 -4 -7 7 -18 5 -33 -6 -31
-21 -42 -20 -30 2 7 14 6 18 -8 18 -13 0 -17 -6 -14 -21z m113 -688 c0 -5 7
-4 15 3 12 10 15 10 15 0 0 -7 7 -10 16 -6 12 4 15 2 10 -9 -4 -13 -2 -14 14
-5 11 6 20 7 19 3 -3 -21 3 -23 23 -9 26 19 38 20 38 6 0 -6 -9 -14 -20 -18
-29 -11 -10 -32 36 -39 40 -6 118 -58 109 -73 -3 -5 4 -25 16 -44 13 -22 16
-36 9 -36 -7 0 -5 -12 7 -32 28 -52 123 -177 141 -188 10 -5 12 -10 6 -10 -5
0 -20 9 -33 21 -34 32 -39 13 -6 -21 33 -35 42 -65 17 -56 -9 4 1 -9 23 -29
48 -42 99 -81 103 -77 1 1 7 2 12 2 16 0 30 -47 35 -114 2 -34 9 -115 15 -181
13 -138 8 -219 -26 -400 -26 -142 -33 -168 -71 -265 -27 -69 -40 -92 -29 -50
l7 25 -20 -24 c-12 -13 -21 -18 -21 -11 0 21 -36 -17 -55 -57 -9 -19 -19 -32
-22 -29 -3 2 -15 -6 -28 -20 -12 -13 -29 -24 -36 -24 -8 0 -32 -20 -54 -45
-41 -47 -128 -116 -151 -119 -8 -1 -17 -5 -20 -9 -15 -15 -54 -7 -54 11 0 11
-3 13 -8 5 -11 -17 -36 1 -29 20 3 9 -1 18 -10 21 -11 4 -14 2 -10 -9 4 -8 3
-17 -2 -19 -4 -3 -14 10 -21 29 -8 21 -21 35 -31 35 -19 0 -34 29 -22 41 4 4
33 11 63 14 39 4 51 3 40 -5 -8 -5 -10 -10 -5 -9 13 0 63 28 51 29 -5 0 -1 9
10 21 10 11 19 26 19 32 1 7 5 20 9 30 12 26 1 32 -25 13 -17 -11 -27 -12 -42
-4 -15 7 -22 7 -28 -3 -5 -8 -9 -11 -9 -7 0 4 -13 3 -29 -2 -34 -9 -57 3 -64
35 -3 13 -5 9 -6 -12 -1 -35 -18 -38 -60 -11 -58 36 19 60 227 71 111 6 114 6
138 -18 23 -23 25 -24 23 -9 0 4 5 11 13 15 9 6 9 9 1 9 -6 0 -10 9 -8 20 5
27 -11 35 -75 37 -30 1 -90 9 -134 19 -63 14 -84 15 -110 6 -33 -12 -96 0 -96
18 0 20 30 31 66 24 33 -6 37 -5 32 12 -3 10 -7 25 -9 33 -3 9 8 18 26 24 88
27 119 55 79 71 -23 9 -77 7 -92 -3 -25 -15 -95 13 -120 49 -19 29 -21 41 -16
99 3 36 9 80 13 96 4 17 4 84 0 150 -10 137 -11 142 -27 171 -6 12 -8 24 -5
28 8 7 -62 76 -77 76 -6 0 -9 4 -6 8 2 4 -4 13 -15 20 -11 7 -19 8 -19 2 0 -5
5 -10 11 -10 5 0 8 -4 4 -10 -3 -5 -14 -1 -25 10 -11 11 -25 20 -31 20 -7 0
-9 10 -5 25 6 23 5 24 -19 15 -16 -6 -25 -6 -25 0 0 17 5 25 12 23 4 -2 5 11
3 27 -2 18 0 28 6 24 5 -3 7 -10 4 -15 -4 -5 -1 -9 4 -9 6 0 10 11 9 25 -2 16
-7 24 -15 21 -7 -3 -15 -1 -18 5 -4 5 -1 8 6 7 7 -2 13 4 13 12 -1 28 -16 70
-26 70 -5 0 -7 8 -3 19 3 10 -1 24 -10 31 -8 7 -12 17 -8 23 4 7 -1 8 -13 4
-17 -6 -17 -6 -3 6 12 9 14 18 8 36 -5 12 -7 34 -5 47 3 14 0 24 -7 24 -8 0
-7 3 2 9 7 5 14 21 15 37 2 35 14 57 27 49 5 -4 9 -1 9 4 0 6 -5 11 -10 11 -6
0 -9 6 -8 12 4 19 76 58 95 51 9 -4 21 1 29 12 8 10 14 13 14 7 0 -7 11 -12
25 -12 19 0 23 4 18 18 -3 11 0 9 12 -6 11 -15 23 -21 35 -17 10 3 24 0 31 -7
8 -7 24 -14 37 -16 20 -3 22 1 22 39 0 61 13 43 19 -25 1 -6 8 -1 16 10 8 10
15 15 15 11 0 -4 14 5 31 21 30 28 59 38 59 19z m-330 -1072 c0 -5 -4 -4 -9 4
-5 7 -14 10 -21 6 -8 -5 -8 -11 3 -23 11 -14 11 -22 2 -39 -6 -13 -14 -20 -17
-18 -3 3 -4 -8 -2 -25 3 -28 -4 -36 -30 -31 -5 1 -4 -4 2 -12 15 -18 12 -65
-4 -71 -7 -3 -18 2 -25 10 -10 12 -14 12 -20 2 -6 -9 -12 -3 -22 20 -7 18 -16
30 -19 26 -11 -10 -48 19 -38 31 5 6 5 17 -2 25 -8 12 -8 11 -3 -5 6 -19 5
-19 -12 -2 -15 15 -16 19 -3 27 8 5 17 7 21 4 4 -2 12 3 19 11 7 8 16 12 21 9
13 -8 11 10 -3 25 -11 11 -10 12 1 6 11 -6 13 -4 8 8 -5 14 11 25 55 36 4 1
20 8 35 16 26 14 29 13 45 -8 10 -12 18 -26 18 -32z"/>
<path d="M4650 8524 c-295 -61 -284 -58 -298 -87 -9 -19 -10 -32 -3 -45 6 -11
7 -22 4 -26 -3 -3 -1 -6 5 -6 7 0 12 -15 12 -35 0 -21 7 -42 18 -52 42 -39 63
-53 85 -53 12 0 18 -4 12 -8 -31 -22 19 -59 95 -69 41 -6 73 16 63 44 -4 11
-3 14 5 9 7 -4 12 -14 12 -22 0 -8 5 -14 10 -14 6 0 10 10 10 23 1 22 1 22 16
2 16 -20 16 -20 10 1 -6 18 -3 21 19 19 15 -2 29 3 35 13 5 10 10 13 10 9 0
-4 6 -2 14 5 8 7 12 16 9 21 -2 4 2 7 10 7 16 0 59 44 77 79 11 21 10 26 -5
37 -10 7 -37 16 -61 20 -24 3 -44 10 -44 15 0 5 -11 9 -25 9 -37 0 -21 25 23
36 25 7 50 6 77 -2 31 -9 48 -9 69 0 29 12 29 12 -51 49 -86 40 -109 42 -213
21z"/>
<path d="M5006 7914 c-4 -19 -14 -38 -22 -41 -7 -3 -14 -14 -14 -25 0 -11 -8
-22 -20 -25 -11 -3 -20 -13 -20 -22 0 -9 -14 -25 -30 -36 -16 -11 -30 -23 -30
-27 0 -5 -10 -8 -22 -8 -13 0 -30 -5 -38 -10 -12 -8 -12 -10 5 -11 11 0 15 -3
8 -5 -7 -3 -20 -1 -30 4 -12 7 -24 5 -42 -7 -19 -12 -23 -12 -17 -2 6 10 5 12
-2 7 -6 -4 -21 -2 -32 4 -24 13 -26 5 -5 -17 12 -12 13 -18 4 -29 -18 -22 -1
-32 61 -37 64 -4 110 8 110 30 0 17 50 69 63 65 4 -1 7 4 7 11 0 6 14 38 31
70 39 75 60 135 50 142 -5 2 -12 -11 -15 -31z"/>
<path d="M3860 7398 c0 -13 7 -33 15 -44 8 -12 12 -23 10 -25 -2 -3 0 -21 5
-42 4 -21 4 -39 -1 -43 -5 -3 -9 -15 -9 -27 0 -17 2 -19 10 -7 7 11 11 9 19
-14 6 -15 9 -32 5 -37 -3 -5 -1 -9 4 -9 6 0 8 -9 5 -20 -4 -15 -2 -19 10 -15
26 11 39 83 28 153 -9 56 -15 69 -56 108 -41 41 -45 43 -45 22z"/>
<path d="M2260 7179 c-19 -10 -70 -32 -112 -50 -43 -18 -78 -37 -78 -41 0 -5
-4 -7 -9 -4 -9 6 -124 -39 -191 -74 -37 -19 -39 -28 -24 -110 9 -49 20 -59 58
-53 25 4 33 1 34 -11 1 -9 3 -23 4 -31 1 -8 5 -15 10 -15 4 0 -4 -18 -18 -40
-15 -22 -30 -40 -34 -40 -10 0 -106 -162 -102 -172 1 -5 -3 -8 -9 -8 -5 0 -7
-4 -4 -10 3 -5 1 -10 -4 -10 -6 0 -25 -28 -42 -62 -17 -35 -47 -84 -65 -109
-18 -25 -30 -50 -26 -54 4 -5 1 -5 -5 -1 -7 4 -13 3 -13 -3 0 -5 -23 -36 -52
-68 -29 -32 -39 -47 -22 -33 17 14 -2 -5 -40 -42 -39 -37 -67 -67 -63 -68 5 0
-4 -11 -20 -24 -35 -29 -78 -52 -69 -37 4 6 20 18 37 26 29 16 39 35 17 35 -6
0 -47 -10 -91 -21 -56 -16 -75 -24 -65 -31 9 -7 4 -8 -15 -3 -20 4 -27 2 -22
-6 5 -8 1 -9 -15 -4 -16 5 -20 4 -15 -5 4 -7 1 -11 -6 -10 -20 3 -60 -11 -55
-19 2 -3 -6 -7 -19 -7 -39 -3 -126 -68 -209 -159 -73 -79 -97 -115 -76 -115 5
0 11 6 13 13 3 6 3 -4 0 -23 -3 -19 -9 -39 -13 -45 -4 -5 -10 -25 -13 -42 -4
-18 -16 -52 -27 -75 -12 -24 -23 -61 -26 -82 -3 -22 -12 -52 -20 -67 -8 -16
-14 -58 -15 -96 -1 -63 -15 -185 -18 -155 -2 20 -21 4 -21 -18 0 -10 -11 -31
-24 -47 -28 -33 -45 -80 -25 -68 9 6 11 3 5 -10 -9 -24 44 -117 97 -172 23
-24 45 -43 50 -43 5 0 42 -20 82 -45 79 -47 273 -147 430 -220 153 -71 143
-75 -165 -75 -253 0 -260 -1 -260 -20 0 -18 -7 -20 -89 -20 l-89 0 -6 -32
c-42 -228 -59 -626 -37 -865 70 -742 390 -1417 921 -1943 75 -74 171 -162 213
-195 l76 -60 0 -103 1 -103 58 5 c64 7 59 0 -9 -12 l-44 -8 -1 -54 c-2 -74 4
-93 24 -86 15 5 15 4 0 -7 -10 -8 -15 -17 -12 -20 4 -3 4 -14 0 -23 -5 -14
-13 -11 -51 21 -25 20 -45 33 -45 29 0 -4 -6 -1 -12 8 -7 8 -53 45 -103 82
-108 80 -214 174 -355 316 -445 446 -762 1005 -909 1605 -18 72 -39 153 -47
180 -8 28 -15 61 -16 75 -1 17 -8 26 -20 26 -21 0 -21 -4 19 -186 63 -293 163
-574 303 -849 136 -269 301 -510 513 -749 111 -125 275 -284 324 -314 17 -10
33 -25 36 -32 5 -14 184 -152 235 -181 17 -11 32 -23 32 -27 0 -4 7 -8 15 -8
8 0 15 -3 15 -8 0 -4 16 -16 35 -26 32 -17 35 -23 35 -61 0 -41 2 -43 35 -49
19 -4 37 -11 40 -16 4 -6 -4 -6 -20 0 -49 19 -52 16 -44 -58 10 -83 17 -132
30 -199 l10 -53 865 0 c569 0 864 3 864 10 0 6 -5 10 -12 10 -7 0 -5 5 5 12
17 14 44 169 32 188 -4 6 39 10 117 10 l124 0 23 -115 24 -115 954 0 c793 0
954 2 950 13 -3 8 -19 65 -36 128 -40 144 -130 420 -144 437 -5 6 -7 12 -4 12
2 0 -10 39 -28 87 -19 49 -38 87 -43 86 -5 -1 -7 9 -5 22 3 15 39 49 102 97
123 95 310 266 387 354 32 37 66 75 74 84 36 39 70 82 145 182 243 323 414
684 523 1102 l37 140 65 54 c108 91 146 127 385 362 127 125 277 264 335 309
208 161 220 175 220 249 0 60 -67 272 -155 487 -4 11 -9 26 -11 34 -11 56
-126 301 -174 371 -10 14 -27 44 -39 68 -13 26 -26 40 -33 36 -6 -4 -8 -3 -4
4 11 19 -103 197 -127 197 -7 1 -11 6 -10 13 2 7 -4 20 -13 30 -8 9 -33 41
-55 70 -42 53 -59 64 -59 36 0 -9 9 -18 19 -21 11 -3 17 -11 15 -18 -3 -7 4
-16 15 -20 12 -3 26 -16 32 -28 7 -12 18 -26 26 -30 7 -5 11 -13 7 -18 -8 -13
24 -49 44 -49 8 0 12 -6 8 -15 -3 -9 3 -20 14 -27 11 -7 20 -16 20 -21 0 -4
-4 -5 -10 -2 -17 10 -11 -10 8 -31 10 -11 17 -24 15 -30 -2 -6 3 -17 12 -24 8
-7 15 -23 15 -36 0 -14 6 -24 14 -24 18 0 49 -48 42 -65 -2 -7 6 -23 20 -36
13 -12 24 -27 24 -33 0 -6 -5 -4 -10 4 -8 11 -9 8 -8 -13 2 -17 7 -26 15 -23
8 4 12 -3 10 -17 -1 -14 3 -21 11 -19 8 1 11 -2 7 -8 -3 -5 3 -20 15 -32 13
-14 16 -24 9 -29 -7 -4 -4 -13 9 -25 24 -22 43 -68 37 -86 -3 -7 -1 -26 4 -43
9 -28 9 -28 10 -5 1 21 3 20 21 -15 12 -22 19 -48 16 -57 -2 -10 2 -22 9 -28
13 -11 13 -39 0 -59 -3 -5 -1 -12 4 -16 6 -3 8 -12 5 -20 -3 -7 1 -24 10 -37
8 -13 14 -38 12 -55 -2 -31 8 -46 16 -23 2 6 9 1 16 -10 10 -17 10 -20 -5 -20
-16 -1 -16 -2 2 -16 12 -9 16 -18 10 -22 -6 -4 -10 -14 -10 -22 0 -8 -6 -16
-12 -16 -26 -3 -28 -6 -8 -14 16 -7 17 -9 3 -9 -9 -1 -20 4 -23 9 -10 16 -23
12 -27 -7 -2 -10 3 -23 12 -30 8 -7 10 -13 4 -13 -6 0 -17 7 -24 15 -7 8 -9
15 -4 15 10 0 -17 20 -28 20 -13 0 -1 -30 18 -45 23 -17 14 -19 -21 -3 -21 10
-29 8 -48 -9 -20 -18 -24 -18 -47 -6 l-25 15 29 -7 c19 -4 32 -2 37 7 10 15
12 34 3 25 -4 -3 -26 7 -50 24 -24 16 -44 25 -44 19 0 -6 -5 -8 -12 -4 -7 4
-8 3 -4 -5 4 -6 10 -9 14 -7 4 2 21 -7 37 -21 28 -24 28 -25 3 -9 -36 21 -62
21 -54 0 4 -11 2 -15 -8 -11 -11 4 -13 1 -10 -11 5 -16 5 -16 -8 0 -13 15 -41
11 -39 -6 3 -22 -1 -26 -24 -20 -21 5 -24 3 -18 -12 4 -11 3 -15 -4 -11 -6 4
-13 0 -17 -8 -3 -8 -17 -15 -30 -15 -18 0 -24 -4 -20 -15 6 -14 -5 -19 -32
-16 -6 1 -19 -15 -29 -35 -12 -26 -20 -33 -28 -25 -6 6 -19 11 -28 11 -10 0
-19 5 -21 11 -4 12 -38 1 -38 -12 0 -5 7 -9 15 -9 19 0 19 -7 2 -25 -20 -19
-63 -7 -76 22 -9 19 -9 29 -1 37 8 8 11 7 8 -4 -2 -10 3 -14 17 -12 29 5 29 8
6 31 -25 25 -18 51 11 46 11 -3 17 -1 14 3 -4 4 -13 7 -18 7 -6 0 -13 6 -15
13 -3 7 4 12 16 12 23 0 27 10 11 26 -7 7 -6 11 5 11 8 0 15 -4 15 -9 0 -4 5
-8 11 -8 6 0 7 5 2 13 -11 18 -14 49 -4 43 9 -6 27 49 23 67 -1 4 6 7 16 8 11
0 8 5 -11 13 -15 7 -24 15 -21 19 4 4 13 2 21 -4 10 -9 13 -4 13 30 0 22 3 41
8 41 4 0 7 13 8 30 1 16 -3 27 -7 24 -12 -7 -11 3 1 27 6 11 21 19 35 19 14 0
25 5 25 11 0 6 7 9 15 6 11 -5 12 -1 5 18 -7 17 -5 25 6 29 8 3 14 11 14 18 0
10 -2 10 -9 0 -7 -12 -12 -12 -30 -1 -11 8 -21 17 -21 20 0 3 -9 17 -21 30
-11 13 -16 25 -10 27 5 2 7 11 4 20 -8 22 -49 62 -57 55 -3 -3 -11 6 -17 20
-7 15 -16 24 -21 21 -5 -3 -3 -13 4 -22 12 -15 11 -16 -4 -4 -10 8 -16 19 -15
25 1 7 -4 11 -11 9 -8 -1 -10 2 -7 8 4 6 -5 22 -20 36 -26 24 -26 24 -19 2 6
-21 5 -21 -10 -9 -9 8 -14 21 -11 29 4 12 3 13 -10 2 -12 -10 -15 -10 -15 3 0
9 -8 21 -17 26 -16 9 -16 10 5 11 12 0 22 4 22 10 0 5 -7 6 -17 3 -11 -4 -14
-3 -9 6 6 8 2 11 -9 9 -10 -2 -20 3 -23 11 -3 8 0 11 7 7 6 -4 11 -5 11 -1 0
3 -11 10 -25 15 -15 6 -25 17 -25 29 0 23 -27 41 -50 34 -13 -4 -13 -3 -1 5
12 9 12 13 -2 26 -8 9 -21 16 -27 16 -7 0 -10 6 -7 14 4 10 0 14 -12 11 -12
-2 -23 6 -31 21 -8 13 -19 24 -27 24 -7 0 -13 7 -13 16 0 8 -4 13 -9 10 -10
-7 -25 22 -22 41 1 7 -4 10 -11 8 -17 -7 -22 43 -7 62 14 16 8 24 -19 26 -11
0 -19 4 -17 7 2 4 -5 13 -16 20 -10 8 -19 23 -19 33 0 10 -4 15 -10 12 -5 -3
-10 3 -10 14 0 11 -5 23 -10 26 -6 4 -8 16 -5 27 4 12 0 27 -10 38 -12 13 -13
20 -5 25 9 6 9 10 -1 15 -10 7 -10 11 0 24 7 9 11 22 8 30 -3 8 -3 17 1 19 4
2 2 2 -5 1 -15 -4 -36 22 -28 36 3 5 -1 10 -9 10 -9 0 -16 -4 -16 -9 0 -5 -7
-12 -16 -15 -14 -5 -15 -4 -4 9 8 10 9 15 1 15 -19 0 -12 17 9 23 25 6 27 37
3 38 -14 0 -14 2 3 9 26 10 40 30 22 30 -9 0 -9 3 2 10 9 6 11 10 3 10 -7 0
-10 7 -7 15 4 9 -2 18 -17 24 -13 6 -17 10 -9 11 13 0 13 2 0 9 -8 6 -18 7
-24 4 -5 -4 -7 1 -3 11 4 10 1 19 -8 22 -8 4 -15 12 -15 20 0 8 -6 14 -14 14
-8 0 -13 8 -12 18 1 11 -5 16 -16 14 -11 -2 -18 5 -20 20 -2 14 -9 22 -19 20
-9 -1 -21 9 -27 23 -8 18 -19 25 -38 25 -15 0 -24 3 -21 7 9 9 -23 43 -40 43
-8 0 -12 3 -10 8 3 4 -6 15 -19 25 -17 13 -24 14 -24 5 0 -9 -3 -9 -10 2 -7
10 -10 11 -10 2 0 -10 -4 -10 -20 0 -11 7 -20 19 -20 27 0 8 -3 11 -7 8 -3 -4
-12 -2 -18 3 -13 11 -48 3 -40 -9 2 -4 -2 -8 -10 -8 -8 0 -17 8 -20 17 -3 9
-16 23 -30 30 -29 16 -42 47 -25 64 8 8 10 6 5 -9 -5 -16 -5 -17 3 -5 6 8 8
18 6 22 -9 14 -33 9 -42 -8 -8 -14 -10 -12 -16 9 -3 14 -15 29 -27 32 -13 4
-18 12 -15 21 4 10 2 12 -6 8 -8 -5 -9 -2 -5 9 3 9 3 16 -1 15 -11 -2 -46 15
-54 26 -11 16 -18 3 -11 -22 4 -18 9 -20 24 -11 13 6 19 6 19 -1 0 -5 -5 -10
-12 -10 -6 0 -2 -8 8 -18 31 -29 45 -60 38 -89 -7 -25 -8 -25 -22 -7 -14 18
-14 18 -8 1 39 -115 99 -437 92 -494 -4 -27 -10 -84 -15 -128 -11 -108 -25
-154 -78 -258 -71 -138 -198 -263 -364 -356 -61 -34 -94 -39 -103 -16 -3 8
-10 15 -16 15 -15 0 -49 -37 -42 -46 4 -4 1 -4 -7 1 -7 4 -19 22 -27 40 -10
25 -18 32 -33 28 -25 -6 -22 -48 4 -67 17 -12 18 -17 7 -41 -11 -25 -16 -27
-55 -22 -23 3 -93 17 -156 31 -97 21 -143 26 -311 28 l-198 3 -8 45 c-5 25 -8
234 -7 464 l3 419 30 65 c18 35 29 70 26 77 -9 25 18 33 132 40 94 6 114 10
122 26 6 11 6 20 1 24 -6 3 -8 15 -6 26 3 15 -2 23 -15 26 -11 3 -20 9 -20 13
0 14 29 32 41 24 8 -5 9 -3 5 5 -5 7 -14 10 -22 7 -17 -7 -18 6 -1 23 10 10 6
11 -20 6 -23 -4 -33 -1 -33 7 0 7 -8 2 -18 -12 -10 -16 -24 -24 -35 -22 -16 3
-16 6 4 33 11 16 17 29 14 29 -10 0 -35 -27 -35 -38 0 -18 -70 -83 -81 -76 -7
4 -9 -1 -7 -12 5 -24 -37 -60 -55 -47 -21 16 -41 9 -54 -17 -8 -15 -20 -24
-30 -22 -15 2 -16 1 -3 -7 8 -6 11 -11 5 -11 -5 0 -3 -4 5 -10 9 -6 20 -5 30
3 12 8 11 7 -1 -7 -14 -15 -20 -16 -37 -5 -19 12 -24 10 -47 -11 -25 -23 -25
-23 -25 -2 0 29 -45 41 -68 18 -15 -15 -14 -21 17 -81 33 -64 33 -65 39 -240
7 -235 -16 -765 -33 -765 -89 0 -493 -57 -600 -85 -33 -9 -70 -14 -82 -11 -12
4 -23 1 -26 -7 -5 -16 -48 6 -66 35 -12 19 -11 20 13 16 14 -3 24 -2 24 1 -1
3 5 18 12 33 10 21 16 25 26 17 9 -7 29 -5 69 6 48 14 54 19 44 32 -11 12 -9
18 10 32 27 21 14 30 -34 25 -16 -2 -49 -5 -72 -6 -24 -2 -43 -7 -43 -11 0 -5
-10 -5 -22 -2 -16 6 -20 4 -15 -8 3 -9 -1 -18 -9 -21 -11 -4 -12 -11 -6 -22 6
-11 4 -26 -5 -45 -18 -35 -21 -36 -33 -5 -7 20 -15 23 -49 21 -23 -1 -41 2
-41 7 0 5 -4 7 -8 4 -20 -12 -252 157 -252 185 0 3 -16 23 -35 43 -34 36 -47
65 -24 50 8 -5 10 1 7 19 -4 22 -2 25 18 21 19 -3 22 -1 17 12 -5 13 -3 15 8
9 11 -7 11 -5 -1 10 -11 14 -11 17 -1 11 11 -7 12 3 8 53 -3 50 -10 68 -31 90
-14 15 -26 32 -26 38 0 6 -6 16 -14 22 -7 6 -16 28 -19 49 -4 20 -15 55 -26
77 -64 136 -80 182 -75 221 4 29 3 35 -5 24 -17 -24 -13 6 6 43 13 26 13 30 1
20 -8 -7 -19 -9 -23 -5 -5 4 -5 1 0 -7 5 -9 3 -12 -6 -9 -10 3 -15 26 -17 75
-4 99 26 209 103 373 79 170 79 171 65 231 -7 27 -13 49 -13 49 -86 -11 -412
-84 -415 -92 -2 -4 -14 -5 -28 -2 -19 5 -26 1 -33 -19 -14 -36 -31 -43 -31
-13 0 19 -5 26 -20 26 -11 0 -20 -6 -20 -13 0 -8 -9 -24 -20 -37 -11 -13 -20
-26 -20 -30 0 -4 -8 -7 -17 -6 -10 0 -28 20 -41 46 l-22 45 6 -50 c3 -27 2
-46 -2 -42 -5 5 -9 16 -9 25 0 9 -6 16 -12 14 -7 -1 -13 7 -13 17 0 23 -16 36
-25 21 -3 -5 -2 -10 3 -10 5 0 7 -11 4 -25 -5 -28 -18 -31 -44 -11 -24 18 -23
26 5 27 12 0 16 3 9 6 -6 2 -10 8 -7 13 3 4 -3 6 -13 3 -21 -5 -46 -57 -38
-79 5 -13 15 -14 48 -9 24 4 49 15 56 24 12 14 13 13 9 -7 -3 -12 1 -29 9 -37
8 -8 17 -33 20 -57 6 -37 4 -41 -9 -30 -8 7 -22 9 -31 6 -10 -4 -25 1 -36 11
-10 9 -23 14 -29 11 -12 -8 -34 30 -26 44 3 6 2 10 -4 10 -7 0 -8 -17 -4 -45
7 -56 -10 -61 -27 -7 -7 20 -19 45 -27 54 -10 11 -13 26 -9 42 5 19 2 26 -14
31 -31 10 -24 23 17 31 35 7 36 8 15 17 -27 12 -28 27 -2 77 26 51 57 73 82
59 11 -6 26 -8 33 -5 7 2 28 1 47 -4 67 -17 110 -20 101 -7 -5 7 -8 18 -7 25
1 6 2 17 3 22 0 6 8 10 16 10 8 0 12 6 9 14 -8 22 7 25 51 10 38 -13 38 -13 8
-10 -50 4 -48 -19 3 -43 24 -12 44 -26 44 -31 0 -27 17 -4 33 43 21 66 21 77
2 77 -8 0 -15 5 -15 10 0 6 -5 10 -11 10 -17 0 -40 28 -29 35 5 3 14 4 19 1 5
-3 12 1 15 10 3 8 2 13 -3 10 -4 -3 -9 27 -10 67 -2 71 -14 97 -45 97 -6 0 -5
-4 3 -9 16 -10 17 -79 2 -94 -16 -16 -26 22 -14 52 7 20 6 30 -7 44 -21 21
-30 13 -30 -29 0 -18 -4 -36 -10 -39 -5 -3 -7 0 -4 8 8 21 -11 30 -26 12 -7
-8 -10 -26 -6 -40 4 -14 2 -25 -4 -25 -5 0 -10 -5 -10 -11 0 -5 5 -7 10 -4 6
3 10 0 10 -9 0 -29 -24 -22 -42 13 -23 46 -23 53 8 98 l25 38 -36 33 c-27 25
-40 31 -48 23 -8 -8 -5 -19 12 -42 12 -17 21 -33 18 -35 -6 -6 -71 30 -117 65
-19 14 -42 27 -50 27 -8 1 -40 4 -70 7 -37 4 -59 2 -70 -7 -21 -19 -77 -36
-119 -37 l-36 -1 33 -9 c17 -5 32 -12 32 -14 0 -3 -27 -32 -61 -66 -63 -63
-79 -66 -82 -16 -1 14 -6 23 -11 19 -5 -3 -7 5 -4 16 4 14 0 25 -10 31 -25 14
3 41 43 41 25 0 32 4 31 17 0 10 11 23 27 31 16 8 31 20 34 28 3 8 9 11 14 8
5 -3 9 -1 9 4 0 13 35 21 51 12 16 -10 64 13 73 35 3 9 10 14 16 10 5 -3 22 1
37 9 16 8 22 15 15 16 -7 0 -10 5 -7 10 7 12 9 12 -35 -11z m17 -910 c7 -13
13 -39 13 -57 0 -18 7 -44 16 -57 9 -14 14 -36 12 -50 -3 -14 -1 -25 6 -25 6
0 4 -5 -4 -10 -13 -8 -13 -11 -1 -19 11 -7 9 -10 -8 -16 -13 -4 -20 -12 -17
-20 4 -12 0 -12 -33 -6 -2 1 2 7 8 15 9 11 8 15 -6 18 -10 3 -31 29 -46 57
-29 55 -31 96 -6 178 9 27 13 31 32 24 12 -4 28 -19 34 -32z m269 -18 c-3 -4
-1 -25 4 -46 6 -26 5 -44 -2 -52 -7 -9 -7 -13 1 -13 7 0 10 -4 6 -9 -5 -9 59
-181 92 -245 21 -41 34 -88 22 -81 -5 4 -9 13 -9 20 0 8 -13 21 -30 30 -27 14
-29 14 -23 -2 20 -51 64 -113 81 -113 5 0 12 -9 15 -21 4 -16 3 -18 -8 -9 -11
9 -12 7 -8 -8 2 -11 18 -29 35 -42 18 -13 27 -27 24 -36 -3 -9 -1 -12 4 -9 6
3 10 1 10 -5 0 -6 29 -56 65 -111 36 -55 65 -102 65 -106 0 -3 13 -22 28 -42
42 -54 87 -131 164 -281 39 -74 76 -142 83 -150 7 -8 18 -32 25 -53 6 -21 15
-36 18 -33 16 17 76 -141 87 -231 9 -75 16 -103 25 -103 10 0 19 83 10 90 -10
8 -18 60 -9 54 5 -3 9 -12 9 -20 0 -8 4 -14 8 -14 11 0 37 -56 46 -97 5 -22 2
-39 -9 -57 -10 -14 -14 -26 -9 -26 4 0 3 -5 -3 -11 -6 -6 -9 -18 -6 -27 4 -9
1 -13 -8 -10 -7 2 -14 20 -15 41 -1 19 -7 44 -14 54 -10 15 -10 14 -5 -11 4
-19 1 -34 -11 -47 -9 -11 -12 -19 -6 -19 5 0 9 -8 7 -17 -4 -19 -15 -137 -18
-191 -1 -18 -9 -37 -17 -42 -10 -7 -11 -10 -2 -10 17 0 15 -35 -3 -54 -12 -11
-22 -13 -40 -6 -14 5 -32 7 -42 3 -12 -5 -14 -3 -8 7 6 10 3 12 -13 8 -13 -4
-22 -1 -22 4 0 6 -8 3 -19 -6 -10 -9 -27 -18 -38 -19 -27 -2 -84 23 -77 34 3
5 -7 25 -22 44 -14 19 -22 35 -18 35 5 0 3 4 -4 9 -13 8 -23 44 -23 84 0 9 -5
15 -11 11 -5 -3 -3 6 5 22 14 26 13 32 -3 64 -10 19 -18 37 -18 40 -1 3 -4 14
-7 25 -4 11 -8 25 -10 30 -1 6 -3 12 -5 15 -1 3 -6 25 -11 50 -5 25 -12 56
-16 70 -3 14 -7 35 -7 47 -1 12 -5 21 -11 20 -5 -1 -10 10 -10 26 0 18 -12 39
-32 61 -18 18 -34 44 -35 57 -2 13 -7 27 -12 30 -4 4 -8 27 -9 52 0 25 -4 44
-8 41 -4 -2 -11 1 -14 7 -12 18 -13 79 -2 79 5 0 4 7 -3 15 -6 8 -9 18 -7 22
3 5 -4 33 -15 63 -10 30 -21 77 -24 105 -2 27 -8 51 -14 53 -5 2 -10 9 -10 16
0 16 -37 93 -49 100 -4 3 -7 18 -5 33 1 15 -3 35 -11 43 -13 15 -15 19 -15 40
0 5 -8 6 -17 3 -16 -6 -16 -5 1 12 16 16 16 20 4 29 -8 6 -18 21 -22 34 -4 12
-13 22 -19 22 -7 0 -6 4 3 10 10 6 11 10 3 10 -7 0 -13 6 -13 14 0 8 -7 17
-16 20 -8 3 -13 10 -10 14 3 5 -4 26 -14 48 -11 21 -20 44 -20 51 0 7 -4 13
-8 13 -4 0 -8 8 -8 18 -2 32 -13 75 -23 85 -6 6 -6 19 -1 33 5 13 5 26 1 29
-5 2 -8 25 -8 50 0 25 -2 48 -6 51 -3 3 -3 21 0 39 3 19 -2 54 -11 81 -9 26
-16 52 -16 57 0 17 41 -26 61 -63 18 -33 19 -34 13 -6 -6 23 -4 27 7 20 8 -4
27 -9 42 -9 15 0 32 -7 37 -15 13 -20 12 -4 -1 43 -10 38 -5 62 12 51 5 -3 7
-9 5 -13z m3710 -734 c29 -54 78 -133 109 -175 90 -122 178 -258 249 -384 128
-230 206 -341 359 -510 l78 -87 -87 -133 c-163 -250 -193 -293 -227 -328 -18
-19 -72 -87 -119 -150 -47 -63 -122 -150 -167 -193 l-82 -79 47 -41 c39 -34
56 -42 91 -43 24 -1 43 2 43 6 0 19 40 17 54 -4 15 -20 15 -20 6 7 -12 34 -12
37 -2 37 5 0 18 -19 30 -42 12 -24 22 -36 22 -27 0 8 -7 24 -15 35 -19 25 -19
38 1 30 14 -5 15 -4 4 9 -10 12 -9 16 4 21 9 3 13 11 9 18 -3 6 -2 7 3 3 5 -5
9 -12 10 -15 3 -24 22 -54 27 -45 4 6 0 19 -9 27 -8 9 -11 16 -5 16 6 0 8 8 6
18 -3 9 2 1 11 -18 14 -31 17 -32 26 -16 6 10 6 21 2 25 -16 11 -13 27 9 41
20 12 21 12 9 -3 -14 -17 -3 -52 18 -59 7 -2 8 -12 2 -27 -7 -20 -10 -21 -15
-8 -4 10 -1 17 6 17 8 0 7 4 -3 10 -17 11 -35 -13 -24 -32 4 -6 3 -8 -4 -5
-14 9 -43 -3 -36 -14 3 -5 -2 -9 -10 -9 -9 0 -16 -6 -16 -13 0 -7 -14 -25 -31
-40 -17 -15 -28 -27 -23 -27 4 0 5 -3 2 -6 -4 -3 -17 0 -30 6 -18 10 -21 10
-11 0 7 -7 9 -25 6 -41 -3 -18 1 -38 13 -56 80 -120 117 -202 117 -259 0 -73
-21 -98 -127 -149 -50 -25 -111 -63 -135 -85 -24 -22 -56 -43 -70 -47 -14 -3
-61 -31 -104 -61 -66 -46 -84 -54 -110 -49 -43 7 -91 26 -84 33 3 3 14 1 25
-5 29 -15 43 4 26 37 -19 39 -53 121 -53 128 0 10 -78 114 -120 159 -23 25
-59 67 -78 93 -20 26 -41 50 -47 54 -6 3 -22 16 -35 27 -13 12 -28 21 -33 21
-9 0 -11 41 -2 65 4 9 54 48 113 87 58 39 110 74 114 78 4 4 -17 23 -48 43
-30 21 -55 43 -56 50 0 6 0 361 0 787 l-1 775 26 90 c15 49 30 92 35 95 17 11
58 88 105 195 83 188 115 247 133 243 9 -2 40 -47 69 -101z m-4336 -56 c0 -5
-7 -17 -17 -26 -15 -16 -15 -19 1 -46 16 -27 16 -32 3 -52 -11 -18 -25 -23
-70 -25 -32 -2 -58 1 -62 8 -3 6 -11 8 -16 5 -5 -4 -9 1 -9 10 0 10 -5 13 -12
9 -6 -4 -8 -3 -5 3 4 6 0 25 -9 42 -9 18 -14 34 -13 35 2 2 33 7 69 10 35 4
76 13 90 20 30 17 50 19 50 7z m2840 -621 c167 0 240 -8 340 -37 95 -27 110
-34 110 -54 0 -11 4 -19 9 -19 5 0 12 -7 15 -16 4 -11 2 -15 -8 -11 -21 8 -28
-42 -7 -63 9 -9 36 -25 60 -34 25 -10 51 -25 58 -34 13 -16 13 -16 11 2 -4 28
27 44 49 24 10 -8 24 -13 31 -11 13 5 7 -22 -11 -45 -8 -10 -7 -16 4 -23 11
-7 10 -10 -8 -15 -14 -4 -23 -14 -23 -25 0 -25 -15 -24 -34 2 -22 32 -37 14
-35 -43 2 -40 -1 -54 -17 -65 -10 -8 -18 -19 -16 -25 2 -6 -8 -8 -23 -6 -19 4
-25 2 -21 -8 6 -15 -27 -37 -39 -26 -5 4 -5 -1 -2 -11 5 -14 4 -16 -10 -8 -13
7 -23 3 -40 -15 -25 -27 -38 -31 -30 -10 4 10 1 13 -7 10 -8 -3 -17 0 -21 6
-6 9 -10 9 -16 -1 -7 -11 -9 -11 -9 -1 0 9 -7 11 -21 7 -15 -5 -19 -4 -15 4
10 16 -6 14 -31 -4 -21 -15 -53 -11 -53 6 0 5 -5 9 -11 9 -6 0 -9 -7 -5 -15 3
-8 1 -15 -4 -15 -6 0 -10 5 -10 10 0 6 -5 10 -11 10 -5 0 -8 -4 -5 -9 3 -5 0
-11 -7 -14 -14 -5 -50 17 -41 26 3 3 3 11 -1 17 -6 9 -9 9 -14 1 -4 -6 -22
-13 -40 -16 -26 -3 -31 -1 -27 11 3 9 2 12 -5 9 -5 -4 -21 -8 -35 -10 -20 -2
-24 1 -19 14 11 28 10 33 -5 38 -12 4 -12 3 -1 -5 8 -6 9 -12 3 -16 -9 -5 -22
14 -21 30 0 3 -8 12 -18 21 -10 8 -12 12 -5 8 6 -3 12 -1 12 4 0 6 -6 11 -12
11 -13 1 -43 30 -83 80 -15 18 -16 21 -3 11 28 -21 36 -8 17 24 -16 25 -19 26
-19 10 0 -16 -2 -17 -9 -5 -6 8 -7 18 -5 22 3 4 0 8 -5 8 -6 0 -11 -5 -11 -12
0 -6 -6 -3 -14 8 -13 17 -13 20 5 28 10 5 19 13 19 18 0 19 -35 55 -49 50 -10
-3 -12 1 -8 17 4 18 3 20 -9 10 -8 -6 -25 -9 -38 -7 -19 4 -23 1 -18 -11 5
-13 3 -14 -9 -5 -19 15 -46 14 -46 -3 0 -9 4 -10 14 -2 19 17 16 5 -6 -20 -11
-13 -25 -20 -30 -16 -6 3 -11 1 -11 -4 0 -6 5 -11 10 -11 6 0 10 -4 10 -9 0
-14 -41 0 -47 17 -5 11 -9 9 -19 -9 -13 -23 -13 -23 -8 8 5 25 2 34 -10 39 -9
3 -13 11 -9 17 4 6 0 8 -9 4 -11 -4 -18 2 -23 16 -4 14 -8 17 -12 9 -3 -9 -12
-7 -32 8 -16 11 -31 17 -35 13 -3 -3 -6 -1 -6 6 0 7 -4 10 -9 6 -5 -3 -13 0
-17 6 -4 8 -3 9 4 5 7 -4 12 -1 12 8 0 9 5 16 11 16 6 0 8 9 4 21 -5 14 -3 19
4 15 6 -4 20 -2 31 4 12 6 60 13 108 16 53 2 92 9 100 18 9 9 38 12 100 10 48
-2 161 -3 252 -4z m-1695 -930 c3 -6 -1 -7 -9 -4 -9 3 -16 1 -16 -5 0 -6 7
-11 15 -11 9 0 12 -6 9 -15 -4 -8 -10 -15 -16 -15 -5 0 -6 5 -3 10 3 6 1 10
-4 10 -6 0 -11 -3 -12 -7 -2 -27 -9 -47 -17 -52 -4 -3 -11 -14 -15 -24 -6 -15
-4 -16 14 -6 20 10 20 10 5 -14 -9 -13 -27 -30 -41 -37 -23 -12 -27 -11 -46 9
-23 24 -21 63 6 128 12 28 19 32 57 36 24 2 48 4 55 5 6 1 15 -2 18 -8z m2283
-536 c12 -8 22 -22 22 -30 0 -8 6 -14 12 -14 16 0 -21 -26 -47 -33 -11 -4 -5
-5 13 -3 22 2 32 -2 32 -11 0 -8 6 -16 14 -19 19 -7 29 -47 28 -119 0 -33 3
-53 6 -44 9 22 52 7 52 -18 0 -13 -3 -14 -12 -5 -19 19 -30 14 -23 -9 5 -16 4
-20 -6 -15 -8 4 -6 1 4 -7 9 -8 17 -19 17 -26 0 -16 20 -14 26 4 7 18 20 12
36 -18 10 -20 10 -21 -6 -8 -35 29 -28 0 8 -31 26 -23 39 -44 43 -70 7 -45
-10 -52 -25 -10 l-10 27 -13 -31 c-12 -30 -12 -30 -45 -15 -28 12 -31 17 -21
30 9 11 9 13 0 8 -6 -4 -15 -2 -20 5 -4 7 -17 18 -28 24 -11 7 -19 20 -18 30
1 10 -7 26 -18 35 -10 9 -19 23 -19 30 0 30 -35 109 -48 109 -8 0 -21 -9 -31
-21 -15 -19 -18 -19 -46 -5 -37 19 -54 20 -74 3 -9 -8 -32 -20 -51 -27 -19 -8
-48 -24 -63 -37 -15 -12 -47 -27 -70 -34 -23 -6 -65 -22 -94 -36 -29 -14 -56
-22 -61 -19 -6 3 -23 -10 -38 -30 -35 -43 -56 -56 -106 -62 -34 -3 -38 -1 -38
18 0 20 2 21 17 9 15 -12 16 -12 10 4 -3 9 -3 17 2 17 4 0 14 12 22 28 28 55
41 72 53 65 6 -4 27 -8 47 -9 19 0 42 -4 49 -9 9 -5 15 -4 18 3 2 7 10 12 18
12 17 0 19 27 3 32 -7 2 -9 13 -4 27 6 18 9 21 16 10 6 -10 9 -7 9 12 0 15 7
30 16 33 10 4 13 2 8 -7 -4 -6 4 -1 17 13 13 14 44 31 69 39 98 29 175 59 174
67 -1 5 7 21 17 36 27 38 23 49 -5 14 -21 -27 -30 -30 -87 -32 -208 -8 -256
-13 -299 -32 -56 -24 -127 -36 -132 -22 -2 6 -19 2 -40 -10 -46 -25 -58 -25
-58 -2 0 9 -6 29 -14 44 -14 26 -13 27 17 37 22 8 33 8 37 0 5 -7 10 -4 14 7
6 16 8 16 16 4 8 -13 10 -13 10 1 0 16 135 69 176 69 11 0 25 5 31 11 8 8 15
6 25 -10 15 -24 30 -28 22 -6 -7 17 4 19 26 6 10 -7 18 -4 27 9 12 17 24 18
121 14 59 -3 127 -1 152 4 67 14 93 14 118 -4z m240 -354 c-2 -10 6 -27 16
-39 11 -12 15 -21 9 -21 -6 0 -9 -30 -9 -72 l1 -73 -30 -6 c-33 -7 -24 -12 15
-9 14 1 28 6 31 11 7 12 39 0 39 -15 0 -6 19 -30 41 -54 30 -31 39 -46 31 -54
-8 -8 -17 -7 -34 4 -13 8 -32 14 -43 12 -10 -2 -25 2 -32 8 -7 6 -13 7 -13 2
0 -5 -4 -3 -9 5 -8 12 -13 12 -24 3 -12 -10 -21 -6 -51 24 -39 39 -45 54 -21
54 9 0 12 6 9 18 -4 10 -3 13 3 6 11 -16 49 0 63 26 10 18 7 63 -7 114 -3 12
-1 16 6 12 15 -10 13 5 -4 27 -7 11 -11 25 -8 33 7 19 25 6 21 -16z m-3138
-78 c0 -9 12 -42 26 -72 15 -30 26 -69 25 -87 -3 -53 -54 -222 -96 -318 -19
-44 -70 -180 -95 -255 -11 -36 -27 -78 -35 -95 -7 -16 -17 -43 -21 -60 -4 -16
-9 -34 -13 -40 -3 -5 -7 -21 -9 -35 -1 -14 -5 -32 -9 -40 -3 -8 -5 -19 -4 -23
0 -4 -4 -18 -11 -30 -7 -12 -13 -25 -14 -29 -1 -5 -3 -11 -4 -15 -1 -5 -2 -11
-1 -15 0 -5 -4 -8 -10 -8 -6 0 -8 -7 -5 -16 3 -8 2 -12 -4 -9 -6 3 -10 -3 -10
-14 0 -11 -5 -23 -10 -26 -6 -4 -8 -11 -5 -16 4 -5 -1 -9 -9 -9 -9 0 -15 -3
-14 -7 4 -10 -23 -47 -41 -58 -10 -6 -12 -4 -6 5 6 10 4 12 -10 7 -14 -6 -16
-4 -10 15 7 25 7 31 1 68 -2 14 -5 28 -5 33 -1 4 -6 7 -12 7 -8 0 -8 -5 1 -15
9 -10 9 -15 1 -15 -22 0 -26 3 -23 20 1 9 -5 23 -14 31 -16 13 -16 12 -5 -8 9
-19 9 -22 -3 -17 -8 3 -17 1 -21 -5 -14 -24 -22 -9 -13 23 8 26 16 33 30 31
10 -2 16 0 13 6 -4 5 -13 9 -22 9 -10 0 -13 6 -9 16 3 9 6 20 6 25 0 6 4 7 10
4 5 -3 12 7 15 22 14 63 26 106 83 283 99 311 210 561 311 707 35 51 51 58 51
25z m410 -707 c43 -59 105 -163 125 -211 l14 -34 -36 15 c-25 11 -39 12 -43 5
-4 -6 -12 1 -18 15 -7 14 -17 23 -22 20 -6 -4 -10 -3 -9 2 4 14 -18 58 -35 72
-9 8 -16 28 -16 48 0 21 -6 36 -15 39 -8 4 -15 15 -15 26 0 12 4 17 12 12 7
-4 8 -3 4 4 -4 7 -13 12 -21 12 -10 0 -11 5 -2 24 14 30 23 24 77 -49z"/>
<path d="M7765 2906 c-100 -47 -155 -138 -155 -253 1 -112 57 -201 161 -251
59 -29 165 -30 225 -3 57 26 119 87 143 141 46 100 18 242 -60 317 -80 75
-214 96 -314 49z m220 -26 c161 -69 196 -279 68 -406 -100 -98 -274 -88 -357
21 -116 151 -49 354 131 400 55 14 101 10 158 -15z"/>
</g>
</svg>
